<svg width="53" height="37" viewBox="0 0 53 37" fill="none" xmlns="http://www.w3.org/2000/svg">
<path d="M52.6647 21.084C52.6594 19.7594 52.1684 18.4826 51.2847 17.4962L43.3358 8.49849C43.1387 8.24282 42.8303 8.09881 42.5076 8.11229H32.682C32.0725 8.11229 31.5781 8.6063 31.5781 9.21619V18.3795H11.0437C10.1654 18.3795 9.32296 18.7283 8.70186 19.3494C8.08078 19.9705 7.73193 20.813 7.73193 21.6913V28.3707C7.73116 29.2301 8.065 30.0564 8.66259 30.6744C9.25979 31.2924 10.0741 31.6539 10.9332 31.6825C11.2739 33.3594 12.3725 34.7832 13.9081 35.5379C15.4436 36.2926 17.2421 36.2926 18.7777 35.5379C20.3132 34.7832 21.4122 33.3593 21.7526 31.6825H38.2022C38.5429 33.3594 39.6415 34.7832 41.1771 35.5379C42.7126 36.2926 44.5111 36.2926 46.0467 35.5379C47.5822 34.7832 48.6812 33.3593 49.0216 31.6825H49.4632C50.3511 31.6617 51.1986 31.3067 51.8366 30.6891C52.4392 30.0453 52.7746 29.197 52.775 28.3153L52.6647 21.084ZM16.3431 34.0008C15.4826 33.9865 14.6628 33.6319 14.0633 33.0147C13.4634 32.3978 13.1319 31.5684 13.1415 30.7079C13.1515 29.8473 13.5011 29.0257 14.1149 28.4222C14.7283 27.8193 15.5557 27.4831 16.4163 27.4877C17.2769 27.4927 18.1005 27.8377 18.7073 28.448C19.3141 29.0579 19.6549 29.8834 19.6549 30.7441C19.6553 31.6177 19.3045 32.4545 18.6819 33.0666C18.0589 33.6792 17.2165 34.0158 16.3431 34.0008ZM43.6119 34.0008C42.7479 34.0008 41.9197 33.6577 41.309 33.047C40.698 32.4364 40.3549 31.6077 40.3549 30.7441C40.3549 29.8805 40.698 29.0522 41.309 28.4412C41.9197 27.8305 42.748 27.4874 43.6119 27.4874C44.4756 27.4874 45.3038 27.8305 45.9145 28.4412C46.5255 29.0522 46.8686 29.8805 46.8686 30.7441C46.8836 31.6124 46.5456 32.4499 45.9314 33.0636C45.3173 33.6777 44.4802 34.0162 43.6119 34.0008ZM50.2359 29.1435C50.026 29.3422 49.7518 29.4596 49.4631 29.4746H48.9664C48.6703 28.2779 47.9822 27.2144 47.0119 26.4543C46.0416 25.6938 44.8445 25.2803 43.612 25.2795C42.3833 25.273 41.1897 25.685 40.2262 26.4474C39.2632 27.2102 38.5883 28.2775 38.3126 29.4746H21.6974C21.4013 28.2779 20.7136 27.2144 19.7429 26.4543C18.7726 25.6938 17.5755 25.2803 16.343 25.2795C15.1147 25.273 13.9207 25.685 12.9576 26.4474C11.9942 27.2102 11.3193 28.2775 11.0436 29.4746C10.446 29.4469 9.96736 28.9683 9.93966 28.3707V21.6913C9.93966 21.0818 10.4341 20.5874 11.0436 20.5874H32.682C32.975 20.5874 33.2557 20.4711 33.4628 20.264C33.6696 20.0568 33.7863 19.7761 33.7863 19.4835V10.3202H42.0109L49.6286 18.9868C50.1719 19.5705 50.4687 20.3418 50.4564 21.1396L50.5669 28.3157V28.3153C50.5777 28.6257 50.4576 28.9263 50.2359 29.1435Z" fill="#204687"/>
<path d="M41.128 12.804C40.9378 12.5406 40.6244 12.3943 40.3002 12.4178H36.933C36.3235 12.4178 35.8291 12.9118 35.8291 13.5217V19.4833C35.8291 19.7759 35.9454 20.0566 36.1525 20.2638C36.3593 20.4709 36.6404 20.5872 36.933 20.5872H45.3786C45.811 20.5799 46.1995 20.3212 46.3724 19.9249C46.5434 19.5384 46.4791 19.0886 46.2068 18.7655L41.128 12.804ZM38.0369 18.3794V14.6256H39.8035L43.0051 18.379L38.0369 18.3794Z" fill="#204687"/>
<path d="M27.9906 16.5024C28.2833 16.5024 28.5639 16.3861 28.7711 16.1794C28.9783 15.9722 29.0945 15.6915 29.0945 15.3985V2.09528C29.0945 1.80265 28.9782 1.52195 28.7711 1.3148C28.5639 1.10764 28.2833 0.991364 27.9906 0.991364H12.4242C11.8147 0.991364 11.3203 1.48576 11.3203 2.09526V15.3985C11.3203 15.6915 11.4366 15.9722 11.6437 16.1793C11.8505 16.3861 12.1316 16.5024 12.4242 16.5024L27.9906 16.5024ZM19.0479 3.19921H21.3663V4.91031H19.0479V3.19921ZM13.5279 3.19921H16.8401V6.01431C16.8401 6.30695 16.9564 6.58802 17.1635 6.7948C17.3703 7.00195 17.6514 7.11823 17.944 7.11823H22.4706C22.7679 7.1344 23.0582 7.02312 23.2688 6.8125C23.4795 6.60188 23.5907 6.31156 23.5746 6.0143V3.1992H26.8868V14.2944H13.5284L13.5279 3.19921Z" fill="#204687"/>
<path d="M2.26719 3.7512C2.26719 4.04422 2.38347 4.32491 2.59062 4.53207C2.7974 4.73885 3.07847 4.85512 3.37111 4.85512H7.73211C8.02475 4.85512 8.30544 4.73884 8.5126 4.53207C8.71975 4.32491 8.83603 4.04422 8.83603 3.7512C8.8522 3.45395 8.74093 3.16362 8.5303 2.953C8.31968 2.74237 8.02936 2.6311 7.7321 2.64727H3.3711C3.07385 2.6311 2.78353 2.74237 2.5729 2.953C2.36227 3.16362 2.25102 3.45394 2.26719 3.7512Z" fill="#204687"/>
<path d="M1.329 9.98881H7.7323C8.34182 9.98881 8.8362 9.49441 8.8362 8.8849C8.8362 8.27499 8.34181 7.78061 7.7323 7.78061H1.329C0.719088 7.78061 0.225098 8.275 0.225098 8.8849C0.225098 9.49443 0.719108 9.98881 1.329 9.98881Z" fill="#204687"/>
<path d="M8.83591 14.0736C8.83591 13.781 8.71963 13.5003 8.51248 13.2931C8.30532 13.086 8.02463 12.9697 7.73199 12.9697H3.37099C2.76147 12.9697 2.26709 13.4641 2.26709 14.0736C2.26709 14.6835 2.76149 15.1779 3.37099 15.1779H7.73199C8.02463 15.1779 8.30532 15.0616 8.51248 14.8545C8.71964 14.6473 8.83591 14.3666 8.83591 14.0736Z" fill="#204687"/>
</svg>
