<svg width="43" height="44" viewBox="0 0 43 44" fill="none" xmlns="http://www.w3.org/2000/svg">
<path d="M21.499 0.126892C20.769 0.126892 20.3322 0.394431 19.8493 0.66056C19.3663 0.926688 18.8893 1.25494 18.4239 1.5747C17.9586 1.89449 17.5062 2.20685 17.1368 2.44439C16.7672 2.68193 16.423 2.82876 16.466 2.81747C16.509 2.80582 16.1402 2.84817 15.7016 2.82735C15.263 2.80617 14.7181 2.75746 14.1554 2.7137C13.5928 2.66958 13.0196 2.63781 12.4687 2.64946C11.9178 2.66111 11.4045 2.64699 10.7722 3.01265C10.1399 3.37831 9.89364 3.8301 9.60832 4.30232C9.32298 4.77458 9.06758 5.29417 8.82416 5.8045C8.58074 6.31488 8.34471 6.81434 8.14356 7.2054C7.94241 7.59647 7.72013 7.89156 7.75147 7.86014C7.78283 7.82873 7.49079 8.05144 7.10047 8.25299C6.71014 8.45453 6.21167 8.68853 5.70228 8.93243C5.19324 9.17632 4.67185 9.43221 4.20056 9.71811C3.72921 10.004 3.28079 10.2507 2.91582 10.8843C2.55087 11.5178 2.55509 12.0321 2.54347 12.5841C2.53184 13.1361 2.57377 13.7104 2.61745 14.274C2.66148 14.8377 2.70763 15.3862 2.72842 15.8256C2.74885 16.2651 2.70693 16.6346 2.71855 16.5915C2.73018 16.5485 2.58328 16.8933 2.3462 17.2636C2.10912 17.6338 1.78995 18.0845 1.4708 18.5508C1.15163 19.0171 0.831423 19.4975 0.565818 19.9813C0.300203 20.4652 0.0356445 20.9029 0.0356445 21.6342C0.0356445 22.3656 0.300203 22.8107 0.565818 23.2945C0.831432 23.7785 1.15165 24.2588 1.4708 24.7251C1.78996 25.1913 2.10912 25.642 2.3462 26.0123C2.58328 26.3826 2.73018 26.72 2.71855 26.6769C2.70693 26.6339 2.74885 27.0009 2.72842 27.4404C2.70799 27.8798 2.66113 28.4382 2.61745 29.0018C2.57341 29.5655 2.53184 30.1398 2.54347 30.6918C2.5551 31.2438 2.55052 31.7581 2.91582 32.3916C3.28078 33.0251 3.72922 33.2719 4.20056 33.5577C4.67191 33.8436 5.19329 34.0995 5.70228 34.3434C6.21127 34.5873 6.71016 34.8213 7.10047 35.0229C7.49078 35.2244 7.78282 35.4471 7.75147 35.4157C7.72013 35.3843 7.94241 35.6794 8.14356 36.0704C8.34471 36.4615 8.58074 36.961 8.82416 37.4713C9.06758 37.9817 9.32298 38.5012 9.60832 38.9735C9.89367 39.4458 10.1399 39.8976 10.7722 40.2632C11.4045 40.6288 11.9178 40.6147 12.4687 40.6264C13.0196 40.638 13.5928 40.6059 14.1554 40.5621C14.718 40.518 15.2629 40.4619 15.7016 40.4411C16.1402 40.4199 16.509 40.4697 16.466 40.4584C16.423 40.4467 16.7672 40.5936 17.1368 40.8315C17.5063 41.069 17.9586 41.3814 18.4239 41.7011C18.8893 42.0209 19.3662 42.3492 19.8493 42.6153C20.3322 42.8814 20.769 43.1391 21.499 43.1391C22.2289 43.1391 22.6756 42.8814 23.1585 42.6153C23.6415 42.3492 24.1185 42.0209 24.5838 41.7011C25.0492 41.3814 25.5015 41.069 25.871 40.8315C26.2405 40.5939 26.5749 40.4471 26.5319 40.4584C26.4889 40.47 26.8577 40.4203 27.2963 40.4411C27.7349 40.4623 28.2798 40.5184 28.8425 40.5621C29.4051 40.6063 29.9881 40.6377 30.539 40.6264C31.09 40.6147 31.6032 40.6289 32.2355 40.2632C32.8678 39.8975 33.1165 39.4457 33.4019 38.9735C33.6873 38.5013 33.9402 37.9817 34.1836 37.4713C34.4271 36.9613 34.6532 36.4615 34.8544 36.0704C35.0555 35.6794 35.2778 35.3843 35.2464 35.4157C35.2151 35.4471 35.517 35.2244 35.9073 35.0229C36.2976 34.8213 36.7965 34.5873 37.3055 34.3434C37.8145 34.0995 38.3359 33.8436 38.8072 33.5577C39.2786 33.2718 39.727 33.0251 40.092 32.3916C40.4569 31.758 40.4453 31.2438 40.4569 30.6918C40.4685 30.1398 40.4242 29.5655 40.3805 29.0018C40.3364 28.4382 40.2903 27.8798 40.2695 27.4404C40.2484 27.0009 40.291 26.6339 40.2794 26.6769C40.2677 26.72 40.4143 26.3826 40.6517 26.0123C40.8888 25.6421 41.208 25.1913 41.5271 24.7251C41.8463 24.2588 42.1665 23.7784 42.4321 23.2945C42.6977 22.8107 42.9647 22.3656 42.9647 21.6342C42.9647 20.9029 42.6977 20.4652 42.4321 19.9813C42.1665 19.4975 41.8463 19.017 41.5271 18.5508C41.208 18.0845 40.8888 17.6339 40.6517 17.2636C40.4146 16.8933 40.2677 16.5485 40.2794 16.5915C40.291 16.6346 40.2491 16.2651 40.2695 15.8256C40.2906 15.3862 40.3368 14.8377 40.3805 14.274C40.4245 13.7103 40.4685 13.136 40.4569 12.5841C40.4453 12.032 40.4569 11.5178 40.092 10.8843C39.727 10.2507 39.2786 10.004 38.8072 9.71811C38.3359 9.43221 37.8149 9.17632 37.3055 8.93243C36.7965 8.68853 36.2976 8.45452 35.9073 8.25299C35.517 8.05144 35.2151 7.82873 35.2464 7.86014C35.2778 7.89155 35.0555 7.59648 34.8544 7.2054C34.6532 6.81433 34.4271 6.31489 34.1836 5.8045C33.9402 5.29413 33.6873 4.77461 33.4019 4.30232C33.1166 3.83006 32.8679 3.37824 32.2355 3.01265C31.6031 2.64706 31.0899 2.66075 30.539 2.64946C29.988 2.63781 29.405 2.66993 28.8425 2.7137C28.2799 2.75782 27.735 2.80652 27.2963 2.82735C26.8577 2.84853 26.4889 2.80582 26.5319 2.81747C26.5749 2.82911 26.2405 2.68228 25.871 2.44439C25.5015 2.20685 25.0491 1.89449 24.5838 1.5747C24.1185 1.25492 23.6415 0.92667 23.1585 0.66056C22.6755 0.394449 22.2288 0.126892 21.499 0.126892ZM21.5014 2.69394C21.5849 2.72465 21.7491 2.77759 21.9379 2.88171C22.2757 3.06772 22.7129 3.35114 23.1585 3.65751C23.6041 3.96387 24.0579 4.28719 24.5 4.57165C24.9421 4.85613 25.3169 5.11203 25.8808 5.26344C26.4448 5.41485 26.8926 5.38239 27.4171 5.35733C27.9416 5.33263 28.5007 5.27827 29.0397 5.23627C29.5787 5.19427 30.0993 5.16145 30.4847 5.16956C30.7003 5.17415 30.8672 5.21262 30.9532 5.23133C31.0099 5.29522 31.1258 5.42193 31.2392 5.60935C31.439 5.93971 31.6768 6.40809 31.91 6.89658C32.1432 7.38507 32.3767 7.89647 32.6177 8.36416C32.8587 8.83183 33.0531 9.23773 33.466 9.65139C33.8788 10.065 34.2864 10.2599 34.7531 10.5013C35.2199 10.7427 35.7279 10.9767 36.2154 11.2104C36.703 11.4441 37.1729 11.6848 37.5026 11.8849C37.6833 11.9943 37.8087 12.1048 37.875 12.1616C37.8905 12.2481 37.9271 12.4203 37.9317 12.6409C37.9398 13.0271 37.907 13.5389 37.8651 14.0789C37.8232 14.6189 37.7792 15.1865 37.7541 15.712C37.7295 16.2375 37.6967 16.6887 37.8478 17.2537C37.999 17.8188 38.242 18.1918 38.526 18.6348C38.8099 19.0777 39.1449 19.5323 39.4507 19.9788C39.7565 20.4253 40.0369 20.8658 40.2225 21.2043C40.3261 21.3927 40.3793 21.5526 40.4075 21.6342C40.3793 21.7175 40.3268 21.8816 40.2225 22.0715C40.0369 22.41 39.7565 22.848 39.4507 23.2945C39.1449 23.7409 38.8099 24.1956 38.526 24.6385C38.242 25.0815 37.999 25.457 37.8478 26.0221C37.6967 26.5872 37.7295 27.0358 37.7541 27.5613C37.7788 28.0869 37.8232 28.6569 37.8651 29.1969C37.907 29.737 37.9398 30.2488 37.9317 30.6349C37.9271 30.8562 37.8901 31.026 37.875 31.1093C37.8084 31.1686 37.683 31.2815 37.5026 31.3909C37.1729 31.591 36.7029 31.8293 36.2154 32.063C35.7279 32.2966 35.2199 32.5306 34.7531 32.7721C34.2864 33.0135 33.8788 33.2083 33.466 33.622C33.0531 34.0356 32.8586 34.444 32.6177 34.9116C32.3767 35.3793 32.1432 35.8883 31.91 36.3768C31.6768 36.8653 31.439 37.3361 31.2392 37.6664C31.13 37.8472 31.0173 37.9728 30.9581 38.0395C30.8746 38.0547 30.7055 38.0918 30.4847 38.0963C30.0993 38.1045 29.5786 38.0815 29.0397 38.0395C28.5007 37.9975 27.9416 37.9432 27.4171 37.9185C26.8926 37.8938 26.4449 37.8609 25.8808 38.0124C25.3169 38.1638 24.9421 38.4172 24.5 38.7017C24.0579 38.9862 23.6041 39.3119 23.1585 39.6184C22.7129 39.9248 22.2757 40.2081 21.9379 40.3941C21.7487 40.4983 21.5849 40.5487 21.5014 40.577C21.4201 40.5487 21.258 40.4976 21.0699 40.3941C20.7321 40.2081 20.2949 39.9247 19.8493 39.6184C19.4036 39.312 18.9401 38.9862 18.498 38.7017C18.0559 38.4172 17.6835 38.1638 17.1195 38.0124C16.5555 37.8609 16.1054 37.8934 15.5809 37.9185C15.0563 37.9432 14.4997 37.9975 13.9607 38.0395C13.4217 38.0815 12.9011 38.1045 12.5157 38.0963C12.2949 38.0918 12.1258 38.0547 12.0423 38.0395C11.9831 37.9728 11.8704 37.8472 11.7612 37.6664C11.5614 37.3361 11.3307 36.8656 11.0975 36.3768C10.8646 35.8883 10.6307 35.3797 10.3901 34.9116C10.1491 34.444 9.95469 34.0356 9.54146 33.622C9.1286 33.2083 8.72136 33.0135 8.25429 32.7721C7.78752 32.531 7.27987 32.2966 6.79234 32.063C6.30444 31.8297 5.83695 31.591 5.50725 31.3909C5.31878 31.2766 5.1909 31.1604 5.1275 31.1043C5.10883 31.0182 5.07289 30.8505 5.06831 30.6349C5.06021 30.2488 5.09051 29.737 5.13243 29.1969C5.17435 28.6569 5.23107 28.0869 5.25572 27.5613C5.28038 27.0357 5.31315 26.5872 5.16202 26.0221C5.01089 25.457 4.75549 25.0814 4.47156 24.6385C4.18763 24.1956 3.86494 23.7409 3.55919 23.2945C3.25342 22.848 2.97054 22.4099 2.78489 22.0715C2.68097 21.8819 2.62566 21.7178 2.59501 21.6342C2.62566 21.5526 2.68167 21.3927 2.78489 21.2043C2.97054 20.8658 3.25342 20.4253 3.55919 19.9788C3.86496 19.5324 4.18765 19.0777 4.47156 18.6348C4.75549 18.1918 5.0109 17.8187 5.16202 17.2537C5.31314 16.6886 5.28038 16.2375 5.25572 15.712C5.23107 15.1864 5.17435 14.6189 5.13243 14.0789C5.09051 13.5388 5.06021 13.027 5.06831 12.6409C5.07289 12.426 5.10883 12.2555 5.1275 12.1666C5.19055 12.1133 5.31843 11.9996 5.50725 11.8849C5.83697 11.6848 6.30444 11.4441 6.79198 11.2104C7.27953 10.9767 7.78751 10.7427 8.25429 10.5013C8.72106 10.2599 9.12864 10.0651 9.54146 9.65139C9.95429 9.23772 10.1488 8.83182 10.3897 8.36416C10.6307 7.89649 10.8643 7.38505 11.0975 6.89658C11.3307 6.40809 11.5611 5.93969 11.7608 5.60935C11.8742 5.42193 11.9901 5.29521 12.0468 5.23133C12.1328 5.21262 12.2998 5.17415 12.5154 5.16956C12.9008 5.16145 13.4214 5.19427 13.9604 5.23627C14.4993 5.27827 15.0559 5.33263 15.5805 5.35733C16.105 5.38204 16.5553 5.41487 17.1192 5.26344C17.6831 5.11202 18.0555 4.85613 18.4976 4.57165C18.9397 4.28717 19.4033 3.96385 19.8489 3.65751C20.2945 3.35116 20.7317 3.06772 21.0695 2.88171C21.2573 2.7783 21.4197 2.72464 21.5011 2.69394H21.5014ZM21.499 8.23328C14.1269 8.23328 8.12582 14.2456 8.12582 21.6323C8.12582 29.0191 14.1265 35.0432 21.499 35.0432C28.871 35.0432 34.8739 29.0185 34.8739 21.6323C34.8739 14.2462 28.8708 8.23328 21.499 8.23328ZM21.499 10.7633C27.5066 10.7633 32.356 15.6126 32.356 21.6323C32.356 27.6521 27.5063 32.5132 21.499 32.5132C15.4913 32.5132 10.6509 27.6515 10.6509 21.6323C10.6509 15.6132 15.4908 10.7633 21.499 10.7633ZM26.6253 16.8338C26.2959 16.8465 25.9845 16.9874 25.7573 17.2267L19.7108 23.3787L17.24 20.8759C17.0058 20.6303 16.6827 20.4895 16.3435 20.4849C16.0042 20.4806 15.6773 20.6133 15.4367 20.853C15.1961 21.0926 15.0619 21.4191 15.0643 21.759C15.0668 22.0993 15.206 22.4236 15.4497 22.6598L18.8157 26.0693H18.8161C19.0545 26.309 19.379 26.4427 19.7168 26.441C20.0546 26.4392 20.3777 26.3015 20.6134 26.0594L27.5574 19.0006C27.9294 18.6346 28.0386 18.0773 27.8322 17.5973C27.6261 17.1176 27.1467 16.8144 26.6253 16.8338Z" fill="#204687"/>
</svg>
